# xmcd
#
# Track frame offsets:
#	150
#	12161
#	21853
#	37602
#	49327
#	61378
#	73120
#	86765
#	102743
#	119118
#	130993
#	145138
#	163957
#	199365
#	212241
#	224357
#	239509
#
# Disc length: 3394 seconds
#
# Revision: 0
# Processed by: cddbd v1.5.2PL0 Copyright (c) Steve Scherf et al.
# Submitted via: EasyCDDAExtractor 10.5.1.1
#
DISCID=0f0d4011
DTITLE=Various Artist - Trojan Legends Box Set- Disk2
DYEAR=2005
DGENRE=Ska
TTITLE0=The Heptones - Bagaboo
TTITLE1=Byron Lee and The Dragonaires - In The Mood
TTITLE2=Bob Marley - Keep On Skanking
TTITLE3=The Ethiopeans - Weekend Cowhead
TTITLE4=Augustus Pablo - Thriller
TTITLE5=Jacob Miller and The Inner Circle - Tenement Yard
TTITLE6=Delroy Wilson - I Don't Want To See You Cry
TTITLE7=Horace Andy - The Love Of A Woman
TTITLE8=King Tubby - Blessed Dub
TTITLE9=Dillinger - Flat Foot Hustling
TTITLE10=Big Youth - Four Sevens
TTITLE11=Tommy McCook - Rasta De Master
TTITLE12=Lee Perry - Disco Devil
TTITLE13=Dennis Alcapone - Ital Girl
TTITLE14=Jackie Mittoo - Standing Ovation
TTITLE15=Cornel Campbell - Blessed Are They
TTITLE16=I Roy - New York City
EXTD=YEAR: 2005\n
EXTT0=
EXTT1=
EXTT2=
EXTT3=
EXTT4=
EXTT5=
EXTT6=
EXTT7=
EXTT8=
EXTT9=
EXTT10=
EXTT11=
EXTT12=
EXTT13=
EXTT14=
EXTT15=
EXTT16=
PLAYORDER=
